<svg width="187" height="45" viewBox="0 0 187 45" fill="none" xmlns="http://www.w3.org/2000/svg">
<path d="M45.6365 4.13265H26.5257V2.06633C26.5257 0.841837 25.6849 0 24.4618 0C23.2387 0 22.3978 0.841837 22.3978 2.06633V4.13265H3.28705C1.45242 4.13265 0 5.58673 0 7.42347V27.398C0 29.2347 1.45242 30.6888 3.28705 30.6888H11.6193L5.27457 41.8622C4.66303 42.8571 5.04524 44.0816 6.11544 44.6939C6.34477 44.9235 6.72699 44.9235 7.1092 44.9235C7.95008 44.9235 8.56162 44.5408 8.94384 43.9286L16.2824 30.6888H22.3978V42.9337C22.3978 44.1582 23.2387 45 24.4618 45C25.6849 45 26.5257 44.1582 26.5257 42.9337V30.6888H32.8705L40.3619 43.9286C40.7441 44.5408 41.3557 44.9235 42.1966 44.9235C42.5788 44.9235 42.8081 44.9235 43.1903 44.6939C44.1841 44.0816 44.6427 42.8571 44.0312 41.8622L37.5335 30.6122H45.7129C47.5476 30.6122 49 29.1582 49 27.3214V7.42347C48.9236 5.58673 47.4711 4.13265 45.6365 4.13265ZM44.8721 26.5561H4.05148V8.18878H44.7956V26.5561H44.8721Z" fill="#F2A92C"/>
<path d="M70.412 27.074C71.6027 27.3527 72.7427 27.492 73.832 27.492C74.9213 27.492 75.7827 27.2513 76.416 26.77C77.0747 26.2633 77.556 25.402 77.86 24.186L82.42 24.338C82.04 26.618 81.5333 28.5053 80.9 30H62.242C61.7607 26.7573 61.52 23.4007 61.52 19.93C61.52 16.4593 61.6973 13.4827 62.052 11H72.996C71.324 17.4093 70.4627 22.7673 70.412 27.074Z" fill="#F2A92C"/>
<path d="M98.6294 18.638L102.201 18.866C102.556 18.866 102.822 18.8533 102.999 18.828L101.213 22.172H100.871C100.39 22.172 99.706 22.0453 98.8194 21.792C97.9327 21.5133 97.2994 21.374 96.9194 21.374C95.8807 21.374 95.0574 22.0453 94.4494 23.388C94.348 24.6293 94.272 25.8707 94.2214 27.112C95.5387 27.3653 96.5774 27.492 97.3374 27.492H97.6794C98.7687 27.492 99.63 27.2513 100.263 26.77C100.922 26.2887 101.391 25.4273 101.669 24.186L106.229 24.376C105.849 26.5547 105.343 28.4293 104.709 30H86.0514C85.5447 26.58 85.2914 23.1853 85.2914 19.816C85.2914 16.4467 85.4687 13.508 85.8234 11H106.191C105.735 13.736 105.33 15.6613 104.975 16.776C103.481 16.852 102.113 16.9027 100.871 16.928C101.074 16.3453 101.175 15.8007 101.175 15.294C101.175 14.078 100.263 13.47 98.4394 13.47C97.7554 13.47 96.9954 13.546 96.1594 13.698C95.602 16.1047 95.1714 18.22 94.8674 20.044C95.8807 19.1067 97.1347 18.638 98.6294 18.638Z" fill="#F2A92C"/>
<path d="M134.574 29.696V30H125.758C125.656 28.6067 125.441 27.112 125.112 25.516C123.338 27.2893 121.565 28.784 119.792 30H110.938C110.76 28.9613 110.672 27.5933 110.672 25.896C110.672 24.1733 110.925 22.4507 111.432 20.728C113.256 20.196 115.004 19.2967 116.676 18.03C118.373 16.7633 119.602 15.3953 120.362 13.926C119.652 12.8113 118.93 11.836 118.196 11H130.812C133.32 16.4973 134.574 22.7293 134.574 29.696ZM124.428 22.742C123.794 20.5633 122.933 18.4353 121.844 16.358C120.653 19.854 119.969 23.16 119.792 26.276C121.666 25.2627 123.212 24.0847 124.428 22.742Z" fill="#F2A92C"/>
<path d="M158.894 17.612L158.856 18.904C156.829 19.9933 154.296 20.842 151.256 21.45C153.434 22.0327 155.537 22.324 157.564 22.324H158.362C159.755 24.376 160.654 26.9347 161.06 30H151.218C150.964 28.2267 150.445 26.7067 149.66 25.44C148.9 24.148 147.962 23.274 146.848 22.818C146.822 23.2487 146.81 24.11 146.81 25.402C146.81 26.694 146.886 28.2267 147.038 30H138.754C138.019 26.3267 137.652 22.9193 137.652 19.778C137.652 16.6113 137.829 13.6853 138.184 11H158.02C158.602 13.5587 158.894 15.7627 158.894 17.612ZM147.646 13.546C147.342 15.7753 147.114 17.9667 146.962 20.12C148.355 19.9173 149.495 19.4233 150.382 18.638C149.9 16.9407 148.988 15.2433 147.646 13.546Z" fill="#F2A92C"/>
<path d="M186.636 11C186.788 13.66 186.864 16.472 186.864 19.436C186.864 22.3747 186.737 25.896 186.484 30H182.836C177.921 27.3653 173.412 23.7807 169.308 19.246C169.511 20.9433 169.612 22.6913 169.612 24.49C169.612 26.2633 169.549 28.1 169.422 30H164.976C165.483 26.884 165.736 24.0087 165.736 21.374C165.736 18.714 165.609 16.6113 165.356 15.066C164.343 13.546 163.545 12.1907 162.962 11H173.754C174.818 12.824 176.262 14.7113 178.086 16.662C179.935 18.5873 181.696 20.0947 183.368 21.184C183.368 17.4853 182.95 14.0907 182.114 11H186.636Z" fill="#F2A92C"/>
</svg>
