<svg xmlns="http://www.w3.org/2000/svg" width="239" height="194" viewBox="0 0 239 194">
  <g id="dot-shape" transform="translate(-851.995 -1138.587)">
    <circle id="Ellipse_55" data-name="Ellipse 55" cx="2.5" cy="2.5" r="2.5" transform="translate(851.995 1138.587)" fill="#f2a92c"/>
    <circle id="Ellipse_55-2" data-name="Ellipse 55" cx="2.5" cy="2.5" r="2.5" transform="translate(877.995 1138.587)" fill="#f2a92c"/>
    <circle id="Ellipse_55-3" data-name="Ellipse 55" cx="2.5" cy="2.5" r="2.5" transform="translate(903.995 1138.587)" fill="#f2a92c"/>
    <circle id="Ellipse_55-4" data-name="Ellipse 55" cx="2.5" cy="2.5" r="2.5" transform="translate(929.995 1138.587)" fill="#f2a92c"/>
    <circle id="Ellipse_55-5" data-name="Ellipse 55" cx="2.5" cy="2.5" r="2.5" transform="translate(955.995 1138.587)" fill="#f2a92c"/>
    <circle id="Ellipse_55-6" data-name="Ellipse 55" cx="2.5" cy="2.5" r="2.5" transform="translate(981.995 1138.587)" fill="#f2a92c"/>
    <circle id="Ellipse_55-7" data-name="Ellipse 55" cx="2.5" cy="2.5" r="2.5" transform="translate(1007.995 1138.587)" fill="#f2a92c"/>
    <circle id="Ellipse_55-8" data-name="Ellipse 55" cx="2.5" cy="2.5" r="2.5" transform="translate(1033.995 1138.587)" fill="#f2a92c"/>
    <circle id="Ellipse_55-9" data-name="Ellipse 55" cx="2.5" cy="2.5" r="2.5" transform="translate(1059.995 1138.587)" fill="#f2a92c"/>
    <circle id="Ellipse_55-10" data-name="Ellipse 55" cx="2.5" cy="2.5" r="2.5" transform="translate(1085.995 1138.587)" fill="#f2a92c"/>
    <circle id="Ellipse_55-11" data-name="Ellipse 55" cx="2.5" cy="2.5" r="2.5" transform="translate(851.995 1162.587)" fill="#f2a92c"/>
    <circle id="Ellipse_55-12" data-name="Ellipse 55" cx="2.5" cy="2.5" r="2.5" transform="translate(877.995 1162.587)" fill="#f2a92c"/>
    <circle id="Ellipse_55-13" data-name="Ellipse 55" cx="2.5" cy="2.5" r="2.5" transform="translate(903.995 1162.587)" fill="#f2a92c"/>
    <circle id="Ellipse_55-14" data-name="Ellipse 55" cx="2.5" cy="2.5" r="2.5" transform="translate(929.995 1162.587)" fill="#f2a92c"/>
    <circle id="Ellipse_55-15" data-name="Ellipse 55" cx="2.5" cy="2.5" r="2.5" transform="translate(955.995 1162.587)" fill="#f2a92c"/>
    <circle id="Ellipse_55-16" data-name="Ellipse 55" cx="2.5" cy="2.5" r="2.5" transform="translate(981.995 1162.587)" fill="#f2a92c"/>
    <circle id="Ellipse_55-17" data-name="Ellipse 55" cx="2.5" cy="2.5" r="2.5" transform="translate(1007.995 1162.587)" fill="#f2a92c"/>
    <circle id="Ellipse_55-18" data-name="Ellipse 55" cx="2.5" cy="2.5" r="2.5" transform="translate(1033.995 1162.587)" fill="#f2a92c"/>
    <circle id="Ellipse_55-19" data-name="Ellipse 55" cx="2.5" cy="2.5" r="2.5" transform="translate(1059.995 1162.587)" fill="#f2a92c"/>
    <circle id="Ellipse_55-20" data-name="Ellipse 55" cx="2.5" cy="2.5" r="2.5" transform="translate(1085.995 1162.587)" fill="#f2a92c"/>
    <circle id="Ellipse_55-21" data-name="Ellipse 55" cx="2.5" cy="2.5" r="2.5" transform="translate(851.995 1185.587)" fill="#f2a92c"/>
    <circle id="Ellipse_55-22" data-name="Ellipse 55" cx="2.5" cy="2.5" r="2.5" transform="translate(877.995 1185.587)" fill="#f2a92c"/>
    <circle id="Ellipse_55-23" data-name="Ellipse 55" cx="2.5" cy="2.5" r="2.5" transform="translate(903.995 1185.587)" fill="#f2a92c"/>
    <circle id="Ellipse_55-24" data-name="Ellipse 55" cx="2.5" cy="2.5" r="2.5" transform="translate(929.995 1185.587)" fill="#f2a92c"/>
    <circle id="Ellipse_55-25" data-name="Ellipse 55" cx="2.5" cy="2.5" r="2.5" transform="translate(955.995 1185.587)" fill="#f2a92c"/>
    <circle id="Ellipse_55-26" data-name="Ellipse 55" cx="2.5" cy="2.5" r="2.5" transform="translate(981.995 1185.587)" fill="#f2a92c"/>
    <circle id="Ellipse_55-27" data-name="Ellipse 55" cx="2.5" cy="2.5" r="2.5" transform="translate(1007.995 1185.587)" fill="#f2a92c"/>
    <circle id="Ellipse_55-28" data-name="Ellipse 55" cx="2.5" cy="2.5" r="2.5" transform="translate(1033.995 1185.587)" fill="#f2a92c"/>
    <circle id="Ellipse_55-29" data-name="Ellipse 55" cx="2.5" cy="2.5" r="2.5" transform="translate(1059.995 1185.587)" fill="#f2a92c"/>
    <circle id="Ellipse_55-30" data-name="Ellipse 55" cx="2.5" cy="2.5" r="2.5" transform="translate(1085.995 1185.587)" fill="#f2a92c"/>
    <circle id="Ellipse_55-31" data-name="Ellipse 55" cx="2.5" cy="2.5" r="2.5" transform="translate(851.995 1209.587)" fill="#f2a92c"/>
    <circle id="Ellipse_55-32" data-name="Ellipse 55" cx="2.5" cy="2.5" r="2.5" transform="translate(877.995 1209.587)" fill="#f2a92c"/>
    <circle id="Ellipse_55-33" data-name="Ellipse 55" cx="2.5" cy="2.5" r="2.5" transform="translate(903.995 1209.587)" fill="#f2a92c"/>
    <circle id="Ellipse_55-34" data-name="Ellipse 55" cx="2.5" cy="2.5" r="2.5" transform="translate(929.995 1209.587)" fill="#f2a92c"/>
    <circle id="Ellipse_55-35" data-name="Ellipse 55" cx="2.5" cy="2.5" r="2.5" transform="translate(955.995 1209.587)" fill="#f2a92c"/>
    <circle id="Ellipse_55-36" data-name="Ellipse 55" cx="2.5" cy="2.5" r="2.5" transform="translate(981.995 1209.587)" fill="#f2a92c"/>
    <circle id="Ellipse_55-37" data-name="Ellipse 55" cx="2.5" cy="2.5" r="2.5" transform="translate(1007.995 1209.587)" fill="#f2a92c"/>
    <circle id="Ellipse_55-38" data-name="Ellipse 55" cx="2.5" cy="2.5" r="2.5" transform="translate(1033.995 1209.587)" fill="#f2a92c"/>
    <circle id="Ellipse_55-39" data-name="Ellipse 55" cx="2.5" cy="2.5" r="2.5" transform="translate(1059.995 1209.587)" fill="#f2a92c"/>
    <circle id="Ellipse_55-40" data-name="Ellipse 55" cx="2.5" cy="2.5" r="2.5" transform="translate(1085.995 1209.587)" fill="#f2a92c"/>
    <ellipse id="Ellipse_55-41" data-name="Ellipse 55" cx="2.5" cy="2" rx="2.5" ry="2" transform="translate(851.995 1233.587)" fill="#f2a92c"/>
    <ellipse id="Ellipse_55-42" data-name="Ellipse 55" cx="2.5" cy="2" rx="2.5" ry="2" transform="translate(877.995 1233.587)" fill="#f2a92c"/>
    <ellipse id="Ellipse_55-43" data-name="Ellipse 55" cx="2.5" cy="2" rx="2.5" ry="2" transform="translate(903.995 1233.587)" fill="#f2a92c"/>
    <ellipse id="Ellipse_55-44" data-name="Ellipse 55" cx="2.5" cy="2" rx="2.5" ry="2" transform="translate(929.995 1233.587)" fill="#f2a92c"/>
    <ellipse id="Ellipse_55-45" data-name="Ellipse 55" cx="2.5" cy="2" rx="2.5" ry="2" transform="translate(955.995 1233.587)" fill="#f2a92c"/>
    <ellipse id="Ellipse_55-46" data-name="Ellipse 55" cx="2.5" cy="2" rx="2.5" ry="2" transform="translate(981.995 1233.587)" fill="#f2a92c"/>
    <ellipse id="Ellipse_55-47" data-name="Ellipse 55" cx="2.5" cy="2" rx="2.5" ry="2" transform="translate(1007.995 1233.587)" fill="#f2a92c"/>
    <ellipse id="Ellipse_55-48" data-name="Ellipse 55" cx="2.5" cy="2" rx="2.5" ry="2" transform="translate(1033.995 1233.587)" fill="#f2a92c"/>
    <ellipse id="Ellipse_55-49" data-name="Ellipse 55" cx="2.5" cy="2" rx="2.5" ry="2" transform="translate(1059.995 1233.587)" fill="#f2a92c"/>
    <ellipse id="Ellipse_55-50" data-name="Ellipse 55" cx="2.5" cy="2" rx="2.5" ry="2" transform="translate(1085.995 1233.587)" fill="#f2a92c"/>
    <circle id="Ellipse_55-51" data-name="Ellipse 55" cx="2.5" cy="2.5" r="2.5" transform="translate(851.995 1256.587)" fill="#f2a92c"/>
    <circle id="Ellipse_55-52" data-name="Ellipse 55" cx="2.5" cy="2.5" r="2.5" transform="translate(877.995 1256.587)" fill="#f2a92c"/>
    <circle id="Ellipse_55-53" data-name="Ellipse 55" cx="2.5" cy="2.5" r="2.5" transform="translate(903.995 1256.587)" fill="#f2a92c"/>
    <circle id="Ellipse_55-54" data-name="Ellipse 55" cx="2.5" cy="2.5" r="2.5" transform="translate(929.995 1256.587)" fill="#f2a92c"/>
    <circle id="Ellipse_55-55" data-name="Ellipse 55" cx="2.5" cy="2.5" r="2.5" transform="translate(955.995 1256.587)" fill="#f2a92c"/>
    <circle id="Ellipse_55-56" data-name="Ellipse 55" cx="2.5" cy="2.5" r="2.5" transform="translate(981.995 1256.587)" fill="#f2a92c"/>
    <circle id="Ellipse_55-57" data-name="Ellipse 55" cx="2.5" cy="2.5" r="2.5" transform="translate(1007.995 1256.587)" fill="#f2a92c"/>
    <circle id="Ellipse_55-58" data-name="Ellipse 55" cx="2.5" cy="2.5" r="2.5" transform="translate(1033.995 1256.587)" fill="#f2a92c"/>
    <circle id="Ellipse_55-59" data-name="Ellipse 55" cx="2.5" cy="2.5" r="2.5" transform="translate(1059.995 1256.587)" fill="#f2a92c"/>
    <circle id="Ellipse_55-60" data-name="Ellipse 55" cx="2.5" cy="2.5" r="2.5" transform="translate(1085.995 1256.587)" fill="#f2a92c"/>
    <circle id="Ellipse_55-61" data-name="Ellipse 55" cx="2.5" cy="2.5" r="2.5" transform="translate(851.995 1280.587)" fill="#f2a92c"/>
    <circle id="Ellipse_55-62" data-name="Ellipse 55" cx="2.5" cy="2.5" r="2.5" transform="translate(877.995 1280.587)" fill="#f2a92c"/>
    <circle id="Ellipse_55-63" data-name="Ellipse 55" cx="2.5" cy="2.5" r="2.5" transform="translate(903.995 1280.587)" fill="#f2a92c"/>
    <circle id="Ellipse_55-64" data-name="Ellipse 55" cx="2.5" cy="2.5" r="2.5" transform="translate(929.995 1280.587)" fill="#f2a92c"/>
    <circle id="Ellipse_55-65" data-name="Ellipse 55" cx="2.5" cy="2.5" r="2.5" transform="translate(955.995 1280.587)" fill="#f2a92c"/>
    <circle id="Ellipse_55-66" data-name="Ellipse 55" cx="2.5" cy="2.5" r="2.5" transform="translate(981.995 1280.587)" fill="#f2a92c"/>
    <circle id="Ellipse_55-67" data-name="Ellipse 55" cx="2.5" cy="2.5" r="2.5" transform="translate(1007.995 1280.587)" fill="#f2a92c"/>
    <circle id="Ellipse_55-68" data-name="Ellipse 55" cx="2.5" cy="2.5" r="2.5" transform="translate(1033.995 1280.587)" fill="#f2a92c"/>
    <circle id="Ellipse_55-69" data-name="Ellipse 55" cx="2.5" cy="2.5" r="2.5" transform="translate(1059.995 1280.587)" fill="#f2a92c"/>
    <circle id="Ellipse_55-70" data-name="Ellipse 55" cx="2.5" cy="2.5" r="2.5" transform="translate(1085.995 1280.587)" fill="#f2a92c"/>
    <circle id="Ellipse_55-71" data-name="Ellipse 55" cx="2.5" cy="2.5" r="2.5" transform="translate(851.995 1303.587)" fill="#f2a92c"/>
    <circle id="Ellipse_55-72" data-name="Ellipse 55" cx="2.5" cy="2.5" r="2.5" transform="translate(877.995 1303.587)" fill="#f2a92c"/>
    <circle id="Ellipse_55-73" data-name="Ellipse 55" cx="2.5" cy="2.5" r="2.5" transform="translate(903.995 1303.587)" fill="#f2a92c"/>
    <circle id="Ellipse_55-74" data-name="Ellipse 55" cx="2.5" cy="2.5" r="2.5" transform="translate(929.995 1303.587)" fill="#f2a92c"/>
    <circle id="Ellipse_55-75" data-name="Ellipse 55" cx="2.5" cy="2.5" r="2.5" transform="translate(955.995 1303.587)" fill="#f2a92c"/>
    <circle id="Ellipse_55-76" data-name="Ellipse 55" cx="2.5" cy="2.5" r="2.5" transform="translate(981.995 1303.587)" fill="#f2a92c"/>
    <circle id="Ellipse_55-77" data-name="Ellipse 55" cx="2.5" cy="2.5" r="2.5" transform="translate(1007.995 1303.587)" fill="#f2a92c"/>
    <circle id="Ellipse_55-78" data-name="Ellipse 55" cx="2.5" cy="2.5" r="2.5" transform="translate(1033.995 1303.587)" fill="#f2a92c"/>
    <circle id="Ellipse_55-79" data-name="Ellipse 55" cx="2.5" cy="2.5" r="2.5" transform="translate(1059.995 1303.587)" fill="#f2a92c"/>
    <circle id="Ellipse_55-80" data-name="Ellipse 55" cx="2.5" cy="2.5" r="2.5" transform="translate(1085.995 1303.587)" fill="#f2a92c"/>
    <circle id="Ellipse_55-81" data-name="Ellipse 55" cx="2.5" cy="2.5" r="2.5" transform="translate(851.995 1327.587)" fill="#f2a92c"/>
    <circle id="Ellipse_55-82" data-name="Ellipse 55" cx="2.5" cy="2.5" r="2.5" transform="translate(877.995 1327.587)" fill="#f2a92c"/>
    <circle id="Ellipse_55-83" data-name="Ellipse 55" cx="2.5" cy="2.5" r="2.5" transform="translate(903.995 1327.587)" fill="#f2a92c"/>
    <circle id="Ellipse_55-84" data-name="Ellipse 55" cx="2.5" cy="2.5" r="2.5" transform="translate(929.995 1327.587)" fill="#f2a92c"/>
    <circle id="Ellipse_55-85" data-name="Ellipse 55" cx="2.5" cy="2.5" r="2.5" transform="translate(955.995 1327.587)" fill="#f2a92c"/>
    <circle id="Ellipse_55-86" data-name="Ellipse 55" cx="2.5" cy="2.5" r="2.5" transform="translate(981.995 1327.587)" fill="#f2a92c"/>
    <circle id="Ellipse_55-87" data-name="Ellipse 55" cx="2.5" cy="2.5" r="2.5" transform="translate(1007.995 1327.587)" fill="#f2a92c"/>
    <circle id="Ellipse_55-88" data-name="Ellipse 55" cx="2.5" cy="2.5" r="2.5" transform="translate(1033.995 1327.587)" fill="#f2a92c"/>
    <circle id="Ellipse_55-89" data-name="Ellipse 55" cx="2.5" cy="2.5" r="2.5" transform="translate(1059.995 1327.587)" fill="#f2a92c"/>
    <circle id="Ellipse_55-90" data-name="Ellipse 55" cx="2.5" cy="2.5" r="2.5" transform="translate(1085.995 1327.587)" fill="#f2a92c"/>
  </g>
</svg>
